Coordinates
version=1
nRows=25
nColumns=33
inDegrees=yes

Units are S.I. units (second, meters, Newtons, ...)
Angles are in degrees.

endheader
time	ground_thorax_rot_x	ground_thorax_rot_y	ground_thorax_rot_z	ground_thorax_tx	ground_thorax_ty	ground_thorax_tz	clav_prot_r	clav_elev_r	scapula_abduction_r	scapula_elevation_r	scapula_upward_rot_r	scapula_winging_r	shoulder_elv_r	plane_of_elev_r	axial_rot_r	elbow_flexion_r	pro_sup_r	wrist_flex_r	wrist_dev_r	clav_prot_l	clav_elev_l	scapula_abduction_l	scapula_elevation_l	scapula_upward_rot_l	scapula_winging_l	shoulder_elv_l	plane_of_elev_l	axial_rot_l	elbow_flexion_l	pro_sup_l	wrist_flex_l	wrist_dev_l	
3.9900	-37.328040	-5.608033	6.907309	-81.675962	789.103821	10.563751	5.337394	-45.000000	45.000000	-45.000000	-19.209615	-1166.148889	-1193.864358	145.589447	180.000000	1085.436250	52.553914	21.678783	14.249386	16.806644	36.917456	-45.000000	-35.425048	-22.323174	-641.313422	-2815.787498	24.738376	-34.466304	368.418491	23.903424	8.106352	-16.649582	
4.0000	-37.342838	-5.522887	6.822774	-81.984012	789.072710	10.417846	5.254134	-45.000000	45.000000	-45.000000	-19.183891	-1166.126231	-1193.894451	145.566140	180.000000	1085.474353	52.632369	21.737063	14.256219	16.804324	37.056792	-45.000000	-35.477376	-22.328996	-641.367378	-2815.758845	24.797083	-34.062257	368.424902	23.852544	8.143819	-16.674524	
4.0100	-37.358273	-5.437454	6.720514	-82.307255	789.040977	10.270220	5.149800	-45.000000	45.000000	-45.000000	-19.227266	-1166.109860	-1193.891658	145.485837	180.000000	1085.518113	52.709721	21.843322	14.292089	16.767702	37.269184	-45.000000	-35.532405	-22.281152	-641.412538	-2815.755880	24.838476	-33.636400	368.414690	23.796633	8.155125	-16.690949	
4.0200	-37.361015	-5.387813	6.678284	-82.663140	789.006374	10.118301	5.104357	-45.000000	45.000000	-45.000000	-19.274000	-1166.110974	-1193.902433	145.447937	180.000000	1085.563620	52.775975	21.917144	14.311550	16.766379	37.371604	-45.000000	-35.570808	-22.303142	-641.430903	-2815.740682	24.875057	-33.366583	368.431204	23.755646	8.156890	-16.705280	
4.0300	-37.360710	-5.356554	6.666281	-83.054330	788.969888	9.963256	5.087657	-45.000000	45.000000	-45.000000	-19.334342	-1166.117651	-1193.915885	145.433269	180.000000	1085.614546	52.832938	21.953697	14.304894	16.775945	37.429261	-45.000000	-35.606803	-22.359401	-641.430603	-2815.720835	24.907803	-33.196914	368.465647	23.723576	8.165076	-16.723820	
4.0400	-37.357251	-5.336994	6.681705	-83.485180	788.931693	9.806960	5.093817	-45.000000	45.000000	-45.000000	-19.429296	-1166.138097	-1193.917610	145.408969	180.000000	1085.669981	52.882738	22.008862	14.313749	16.791754	37.462992	-45.000000	-35.638490	-22.427526	-641.411196	-2815.706318	24.928546	-33.095169	368.506909	23.694335	8.147873	-16.734356	
4.0500	-37.355657	-5.322260	6.710026	-83.956581	788.891745	9.653132	5.112837	-45.000000	45.000000	-45.000000	-19.529847	-1166.157109	-1193.919019	145.405540	180.000000	1085.732781	52.925266	22.017928	14.287055	16.812238	37.480052	-45.000000	-35.678988	-22.520521	-641.382075	-2815.684243	24.951431	-33.049615	368.565513	23.668874	8.150494	-16.754447	
4.0600	-37.352725	-5.304115	6.743214	-84.465404	788.847928	9.508937	5.132713	-45.000000	44.999999	-45.000000	-19.663819	-1166.188922	-1193.899014	145.378047	180.000000	1085.803090	52.964950	22.062277	14.283391	16.829834	37.517695	-45.000000	-35.729511	-22.605482	-641.347678	-2815.671084	24.965259	-32.999232	368.629687	23.636962	8.128701	-16.768872	
4.0700	-37.350763	-5.280391	6.777223	-85.007751	788.795292	9.383811	5.156397	-45.000000	44.999999	-45.000000	-19.795521	-1166.223329	-1193.873486	145.362544	180.000000	1085.880373	53.001250	22.077332	14.256680	16.852666	37.554943	-45.000000	-35.797120	-22.710621	-641.311654	-2815.654234	24.989095	-32.959722	368.709986	23.603363	8.123074	-16.791428	
4.0800	-37.343222	-5.250182	6.816972	-85.570867	788.718878	9.297930	5.180149	-45.000000	44.999997	-45.000000	-19.950463	-1166.277514	-1193.825089	145.323329	180.000000	1085.959410	53.036564	22.140665	14.264504	16.875429	37.609024	-45.000000	-35.874314	-22.812220	-641.276196	-2815.643702	25.004614	-32.901227	368.793808	23.562204	8.086720	-16.805711	
4.0900	-37.326726	-5.210035	6.860289	-86.139310	788.599992	9.274751	5.203631	-45.000000	44.999995	-45.000000	-20.099410	-1166.344124	-1193.765318	145.288666	180.000000	1086.039771	53.069041	22.182390	14.256274	16.899596	37.662990	-45.000000	-35.964302	-22.932955	-641.238509	-2815.629320	25.031002	-32.847145	368.890750	23.519711	8.061098	-16.825811	
4.1000	-37.282112	-5.153680	6.935405	-86.657955	788.371384	9.389257	5.224354	-45.000000	44.999992	-45.000000	-20.246312	-1166.444455	-1193.677746	145.241573	180.000000	1086.109315	53.098858	22.249163	14.266430	16.919842	37.716389	-45.000000	-36.060055	-23.070745	-641.207812	-2815.609938	25.047623	-32.790443	368.999878	23.471901	8.015145	-16.844285	
4.1100	-37.199845	-5.071115	7.044763	-87.094574	787.993949	9.684617	5.239238	-45.000000	44.999985	-45.000000	-20.368341	-1166.579847	-1193.564034	145.191721	180.000000	1086.163313	53.126125	22.295817	14.265156	16.933346	37.751002	-44.999999	-36.156872	-23.237992	-641.174216	-2815.582816	25.076688	-32.747607	369.124832	23.424208	7.973950	-16.867825	
4.1200	-36.991938	-4.937693	7.283256	-87.199012	787.154704	10.494053	5.241431	-45.000000	44.999973	-45.000000	-20.422560	-1166.814122	-1193.384044	145.147082	180.000000	1086.154473	53.147775	22.323835	14.259881	16.928904	37.732550	-44.999999	-36.241544	-23.482694	-641.171208	-2815.534473	25.089052	-32.752238	369.287463	23.371636	7.925511	-16.903121	
4.1300	-36.689148	-4.754716	7.604420	-87.053816	785.954679	11.702140	5.222721	-45.000000	44.999952	-45.000000	-20.414187	-1167.117201	-1193.148938	145.108422	180.000000	1086.101207	53.170207	22.316981	14.231059	16.894837	37.672150	-44.999997	-36.322386	-23.791226	-641.180490	-2815.473299	25.114859	-32.788104	369.479858	23.327477	7.877795	-16.948537	
4.1400	-36.318960	-4.545103	8.004696	-86.732640	784.482811	13.202254	5.192556	-45.000000	44.999914	-45.000000	-20.355019	-1167.478587	-1192.879286	145.085076	180.000000	1086.009698	53.201889	22.289739	14.182911	16.844996	37.582301	-44.999995	-36.401767	-24.151127	-641.210956	-2815.388377	25.124587	-32.845814	369.701758	23.311237	7.828694	-17.009418	
4.1500	-36.008588	-4.348718	8.358767	-86.569528	783.148719	14.523993	5.160244	-45.000000	44.999845	-45.000000	-20.333660	-1167.809984	-1192.618024	145.052445	180.000000	1085.946705	53.256225	22.288708	14.132729	16.791660	37.516027	-44.999992	-36.497120	-24.494090	-641.212878	-2815.304326	25.154419	-32.870216	369.912705	23.375565	7.748228	-17.064432	
4.1600	-35.775819	-4.199802	8.692417	-86.591759	781.979356	15.598741	5.145874	-45.000000	44.999723	-45.000000	-20.360607	-1168.114550	-1192.392336	145.030824	180.000000	1085.910733	53.335306	22.297306	14.068978	16.760297	37.482275	-44.999985	-36.614341	-24.833077	-641.201483	-2815.205280	25.164958	-32.874062	370.117363	23.578520	7.645483	-17.128971	
4.1700	-35.738195	-4.148053	8.921632	-87.026069	781.216453	16.021843	5.161842	-45.000000	44.999504	-45.000000	-20.546036	-1168.313508	-1192.231882	145.002351	180.000000	1085.962775	53.440805	22.352318	14.003125	16.770628	37.535160	-44.999973	-36.790514	-25.158458	-641.141837	-2815.115938	25.193022	-32.806886	370.276891	24.095034	7.455385	-17.183498	
4.1800	-35.881847	-4.207050	9.089377	-87.777674	780.737231	15.841978	5.222812	-45.000000	44.999112	-45.000000	-20.880531	-1168.432087	-1192.141873	144.976224	180.000000	1086.084994	53.564385	22.436791	13.932949	16.845773	37.667112	-44.999952	-37.022919	-25.491282	-641.046356	-2815.018267	25.214483	-32.673258	370.398374	25.027663	7.180601	-17.249708	
4.1900	-36.291665	-4.447815	9.232164	-88.662568	780.091244	14.867158	5.346632	-45.000000	44.998410	-45.000000	-21.516110	-1168.445247	-1192.112669	144.930736	180.000000	1086.287880	53.685881	22.568042	13.867784	17.041090	37.915407	-44.999913	-37.331738	-25.965777	-640.877784	-2814.888957	25.272090	-32.461639	370.447114	27.125228	6.605001	-17.317194	
4.2000	-36.825846	-4.792626	9.391238	-89.390223	779.100603	13.525014	5.506503	-45.000000	44.997148	-45.000000	-22.268055	-1168.431780	-1192.103578	144.885085	180.000000	1086.501776	53.795829	22.710450	13.807131	17.280284	38.233596	-44.999845	-37.689743	-26.488724	-640.660886	-2814.730900	25.344159	-32.173685	370.450922	30.150098	5.870980	-17.449034	
4.2100	-37.457264	-5.199472	9.518530	-89.978059	777.902844	11.878574	5.675031	-45.000000	44.994902	-45.000000	-23.104194	-1168.378656	-1192.092492	144.830248	180.000000	1086.734323	53.895899	22.876166	13.754908	17.581080	38.627906	-44.999722	-38.112039	-27.039585	-640.422888	-2814.543429	25.462304	-31.674206	370.393963	33.757570	5.068372	-17.661954	
4.2200	-38.033103	-5.540314	9.545886	-90.584064	777.036988	10.279216	5.805747	-45.000000	44.990837	-45.000000	-23.785389	-1168.326236	-1192.057065	144.781803	180.000000	1086.959678	53.999275	23.043784	13.707063	17.801984	39.034016	-44.999501	-38.543024	-27.400699	-640.189882	-2814.357033	25.594905	-30.988592	370.314101	36.818218	4.512352	-17.979140	
4.2300	-38.541888	-5.822604	9.522110	-91.280008	776.516332	8.806158	5.913742	-45.000000	44.983671	-45.000000	-24.399775	-1168.287892	-1191.985939	144.719674	180.000000	1087.186883	54.108474	23.215231	13.657716	18.040248	39.423360	-44.999106	-38.986747	-27.721276	-640.001098	-2814.149417	25.753852	-30.087625	370.201089	39.001192	4.199484	-18.353027	
